<svg width="89" height="15" viewBox="0 0 89 15" fill="none" xmlns="http://www.w3.org/2000/svg">
<path fill-rule="evenodd" clip-rule="evenodd" d="M21.7968 0.576843H20.4507C19.7072 0.576843 19.1045 1.15801 19.1045 1.87492V13.1249C19.1045 13.8418 19.7072 14.423 20.4507 14.423H21.7968C22.5403 14.423 23.143 13.8418 23.143 13.1249V1.87492C23.143 1.15801 22.5403 0.576843 21.7968 0.576843ZM14.1158 3.60583H15.4619C16.2054 3.60583 16.8081 4.187 16.8081 4.90391V13.1251C16.8081 13.842 16.2054 14.4231 15.4619 14.4231H14.1158C13.3723 14.4231 12.7696 13.842 12.7696 13.1251V4.90391C12.7696 4.187 13.3723 3.60583 14.1158 3.60583ZM9.1272 6.63443H7.78105C7.03759 6.63443 6.43489 7.2156 6.43489 7.93251V13.1248C6.43489 13.8417 7.03759 14.4229 7.78105 14.4229H9.1272C9.87066 14.4229 10.4734 13.8417 10.4734 13.1248V7.93251C10.4734 7.2156 9.87066 6.63443 9.1272 6.63443ZM2.79231 9.23055H1.44616C0.7027 9.23055 0.100006 9.81172 0.100006 10.5286V13.1248C0.100006 13.8417 0.7027 14.4229 1.44616 14.4229H2.79231C3.53577 14.4229 4.13847 13.8417 4.13847 13.1248V10.5286C4.13847 9.81172 3.53577 9.23055 2.79231 9.23055Z" fill="black"/>
<path fill-rule="evenodd" clip-rule="evenodd" d="M39.9512 3.28383C42.7973 3.28395 45.5345 4.40385 47.5971 6.41205C47.7524 6.56709 48.0007 6.56514 48.1537 6.40767L49.6384 4.87315C49.7158 4.79328 49.759 4.68509 49.7584 4.57253C49.7577 4.45997 49.7133 4.35231 49.635 4.27337C44.2212 -1.03985 35.6804 -1.03985 30.2667 4.27337C30.1882 4.35225 30.1437 4.45988 30.143 4.57244C30.1423 4.685 30.1854 4.79322 30.2628 4.87315L31.748 6.40767C31.9008 6.56537 32.1493 6.56733 32.3045 6.41205C34.3674 4.40372 37.1049 3.28382 39.9512 3.28383ZM39.9513 8.27615C41.515 8.27605 43.0229 8.87127 44.182 9.94615C44.3388 10.0987 44.5857 10.0954 44.7386 9.93869L46.2216 8.40417C46.2997 8.32368 46.343 8.21449 46.3419 8.10103C46.3408 7.98756 46.2953 7.8793 46.2156 7.80045C42.6859 4.43804 37.2197 4.43804 33.69 7.80045C33.6103 7.8793 33.5648 7.98762 33.5637 8.10112C33.5627 8.21462 33.6062 8.3238 33.6844 8.40417L35.167 9.93869C35.3198 10.0954 35.5668 10.0987 35.7236 9.94615C36.8819 8.87198 38.3886 8.27681 39.9513 8.27615ZM42.922 11.6353C42.9242 11.7491 42.8805 11.8588 42.8012 11.9385L40.2359 14.5898C40.1607 14.6677 40.0582 14.7115 39.9512 14.7115C39.8442 14.7115 39.7417 14.6677 39.6665 14.5898L37.1008 11.9385C37.0215 11.8588 36.9779 11.749 36.9803 11.6353C36.9826 11.5215 37.0307 11.4137 37.1132 11.3375C38.7515 9.91839 41.1509 9.91839 42.7892 11.3375C42.8717 11.4138 42.9197 11.5216 42.922 11.6353Z" fill="black"/>
<rect opacity="0.4" x="57.3353" y="0.576923" width="27.6923" height="13.8462" rx="4.03846" stroke="black" stroke-width="1.15385"/>
<path opacity="0.5" d="M86.7584 5.19232V9.80771C87.6883 9.41681 88.293 8.50748 88.293 7.50001C88.293 6.49255 87.6883 5.58322 86.7584 5.19232Z" fill="black"/>
<rect x="59.0661" y="2.30768" width="19.6154" height="10.3846" rx="2.30769" fill="black"/>
</svg>
